solid model
Here is a valid ASCII STL file for the described 3D object:

```plaintext
solid model
  facet normal 0 0 1
    outer loop
      vertex -30 -30 0
      vertex 30 -30 0
      vertex 30 30 0
    endloop
  endfacet
  facet normal 0 0 1
    outer loop
      vertex -30 -30 0
      vertex 30 30 0
      vertex -30 30 0
    endloop
  endfacet

  facet normal 0 0 1
    outer loop
      vertex -30 -30 2
      vertex 30 -30 2
      vertex 30 30 2
    endloop
  endfacet
  facet normal 0 0 1
    outer loop
      vertex -30 -30 2
      vertex 30 30 2
      vertex -30 30 2
    endloop
  endfacet

  facet normal 0 0 -1
    outer loop
      vertex -30 -30 0
      vertex -30 30 0
      vertex -30 30 2
    endloop
  endfacet
  facet normal 0 0 -1
    outer loop
      vertex -30 -30 0
      vertex -30 30 2
      vertex -30 -30 2
    endloop
  endfacet

  facet normal 0 0 -1
    outer loop
      vertex 30 -30 0
      vertex 30 30 0
      vertex 30 30 2
    endloop
  endfacet
  facet normal 0 0 -1
    outer loop
      vertex 30 -30 0
      vertex 30 30 2
      vertex 30 -30 2
    endloop
  endfacet

  facet normal 0 0 -1
    outer loop
      vertex -30 -30 0
      vertex 30 -30 0
      vertex 30 -30 2
    endloop
  endfacet
  facet normal 0 0 -1
    outer loop
      vertex -30 -30 0
      vertex 30 -30 2
      vertex -30 -30 2
    endloop
  endfacet

  facet normal 0 0 -1
    outer loop
      vertex -30 30 0
      vertex 30 30 0
      vertex 30 30 2
    endloop
  endfacet
  facet normal 0 0 -1
    outer loop
      vertex -30 30 0
      vertex 30 30 2
      vertex -30 30 2
    endloop
  endfacet

  // Circular hole facets (low-poly approximation)
  facet normal 0 0 0
    outer loop
      vertex -6 0 0
      vertex -4.5 4.5 0
      vertex -4.5 -4.5 0
    endloop
  endfacet
  facet normal 0 0 0
    outer loop
      vertex -6 0 0
      vertex -4.5 -4.5 0
      vertex -6 -4.5 0
    endloop
  endfacet
  facet normal 0 0 0
    outer loop
      vertex -6 0 0
      vertex -6 -4.5 0
      vertex -7.5 -3 0
    endloop
  endfacet
  facet normal 0 0 0
    outer loop
      vertex -6 0 0
      vertex -7.5 -3 0
      vertex -7.5 3 0
    endloop
  endfacet
  facet normal 0 0 0
    outer loop
      vertex -6 0 0
      vertex -7.5 3 0
      vertex -6 4.5 0
    endloop
  endfacet
  facet normal 0 0 0
    outer loop
      vertex -6 0 0
      vertex -6 4.5 0
      vertex -4.5 4.5 0
    endloop
  endfacet

  // Cube outline facets (rotated 15 degrees)
  facet normal 0 0 1
    outer loop
      vertex -15 -15 2
      vertex 15 -15 2
      vertex 15 15 2
    endloop
  endfacet
  facet normal 0 0 1
    outer loop
      vertex -15 -15 2
      vertex 15 15 2
      vertex -15 15 2
    endloop
  endfacet

  facet normal 0 0 -1
    outer loop
      vertex -15 -15 2
      vertex -15 15 2
      vertex -15 15 0
    endloop
  endfacet
  facet normal 0 0 -1
    outer loop
      vertex -15 -15 2
      vertex -15 15 0
      vertex -15 -15 0
    endloop
  endfacet

  facet normal 0 0 -1
    outer loop
      vertex 15 -15 2
      vertex 15 15 2
      vertex 15 15 0
    endloop
  endfacet
  facet normal 0 0 -1
    outer loop
      vertex 15 -15 2
      vertex 15 15 0
      vertex 15 -15 0
    endloop
  endfacet

  facet normal 0 0 -1
    outer loop
      vertex -15 -15 2
      vertex 15 -15 2
      vertex 15 -15 0
    endloop
  endfacet
  facet normal 0 0 -1
    outer loop
      vertex -15 -15 2
      vertex 15 -15 0
      vertex -15 -15 0
    endloop
  endfacet

  facet normal 0 0 -1
    outer loop
      vertex -15 15 2
      vertex 15 15 2
      vertex 15 15 0
    endloop
  endfacet
  facet normal 0 0 -1
    outer loop
      vertex -15 15 2
      vertex 15 15 0
      vertex -15 15 0
    endloop
  endfacet

endsolid model
```

This STL file describes a flat plate with a centered circular hole and a raised cube outline, all represented using low-poly triangular facets. The geometry is centered around the origin, and the file adheres to the specified format.
endsolid model